<svg xmlns="http://www.w3.org/2000/svg" viewBox="0 0 322.49 601.84"><defs><style>.cls-1{fill:#fff;}</style></defs><title>White</title><g id="Layer_2" data-name="Layer 2"><g id="Layer_1-2" data-name="Layer 1"><path class="cls-1" d="M31.15,48.32s32.7,25,34.12,42.43-3.55,33.73-3.55,33.73S41.81,113.6,39,106.53s-7.82-16.32-7.82-16.32-2.84,19,11.37,34.27,23,26.66,23,26.66a208,208,0,0,1-18.26-11.88,94.85,94.85,0,0,1-11.85-10.43s19.71,31.55,30.11,37S69,178.37,72.38,181.6c1.66,1.57,8.82-.32,10.19-2,5.85-7.32-6.64-23-7.35-33.86s3.55-32.64-4.27-56S31.15,48.32,31.15,48.32Z"/><path class="cls-1" d="M291.92,48.39s-32.7,25-34.12,42.43,3.55,33.73,3.55,33.73,19.91-10.88,22.75-18,7.82-16.32,7.82-16.32,2.84,19-11.37,34.27-23,26.66-23,26.66a208,208,0,0,0,18.26-11.88,94.85,94.85,0,0,0,11.85-10.43s-19.71,31.55-30.11,37-3.44,12.55-6.85,15.78c-1.66,1.57-8.82-.32-10.19-2-5.85-7.32,6.64-23,7.35-33.86s-3.55-32.64,4.27-56S291.92,48.39,291.92,48.39Z"/><path class="cls-1" d="M127.57,530.35c-.44-.18-28.9-12.43-28.9-26.46s7.58-20.49,15.88-20.49,2.36,18.68,2.36,18.68C117.85,515.28,127.28,529.9,127.57,530.35Z"/><rect class="cls-1" x="161.73" y="399.54" width="0.01" height="0.07"/><rect class="cls-1" x="161.73" y="585.01" width="0.01" height="0.07"/><path d="M97.37,476.94l-.16.34,0-.14Z"/><rect x="161.73" y="585.01" width="0.01" height="0.07"/><path class="cls-1" d="M161.09,585.52Z"/><path class="cls-1" d="M161.33,394Z"/><rect class="cls-1" x="161.73" y="399.54" width="0.01" height="0.07"/><rect class="cls-1" x="161.73" y="585.01" width="0.01" height="0.07"/><path class="cls-1" d="M224.72,503.89c0,14-28.46,26.28-28.9,26.46.29-.45,9.71-15.07,10.65-28.27,0,0-5.92-18.68,2.37-18.68S224.72,489.74,224.72,503.89Z"/><rect x="161.73" y="399.54" width="0.01" height="0.07"/><path class="cls-1" d="M163.35,585.52Z"/><path class="cls-1" d="M163.11,394Z"/><path class="cls-1" d="M321.25,65.23a179,179,0,0,0-6-28.7,140.72,140.72,0,0,0-4.94-14c-1-2.32-2-4.64-3.27-7a39.05,39.05,0,0,0-4.75-7.17,18.48,18.48,0,0,0-1.93-1.93c-.62-.52-1.25-1-1.92-1.49a25.76,25.76,0,0,0-4.13-2.37,28.51,28.51,0,0,0-9-2.39,28.82,28.82,0,0,0-17.61,3.93,26.72,26.72,0,0,0-7,6.09,25.84,25.84,0,0,0-2.59,3.84,36.81,36.81,0,0,0-1.82,3.85A109.19,109.19,0,0,0,252,32.29c-1.1,4.65-2.1,9.2-3.25,13.62a91.78,91.78,0,0,1-4,12.65A33.2,33.2,0,0,1,241.86,64c-.25.42-.55.77-.82,1.16l-1.12,1.48c-.38.52-.79,1-1.16,1.55l-1.06,1.59A83.34,83.34,0,0,0,230.79,83a273.44,273.44,0,0,0-9.36,27.15c-1.37,4.53-2.7,9.06-4,13.58l-.49,1.69L216.4,127c-.34,1.09-.73,2.16-1.1,3.24-.8,2.15-1.62,4.3-2.53,6.42A210.85,210.85,0,0,1,200,161.43c-2.4,4-4.85,8-7.45,11.85-.77,1.16-1.54,2.32-2.33,3.46-.38,0-.75,0-1.13,0s-1,0-1.52,0l-1,.09c-1.24.11-2.49.23-3.73.36.74-7.81,1-18.37-2.41-21.63-5.63-5.38-2.82-20.94-2.82-20.94s-9.07,17.83-7.19,26.33a4.51,4.51,0,0,1,.09.53c-1-4-2.25-7.58-4-9.39-6.26-6.43-20.71-9-21.35-9.08.46.3,7.91,5.16,13.06,17.1a19.09,19.09,0,0,1,1.19,3.77,50.67,50.67,0,0,0-7.61-9.16c-7.64-7.64-21-8.16-21-8.16s8.25,1.27,13.92,15a23.94,23.94,0,0,1,1.13,16.14l-.67-.08c-2.76-.31-5.51-.6-8.27-.85l-1-.09c-.48,0-1,0-1.52,0-.68,0-1.37,0-2.05.11-.8-1.17-1.6-2.35-2.38-3.53-2.59-3.88-5-7.85-7.45-11.85a212.38,212.38,0,0,1-12.76-24.77c-.91-2.12-1.73-4.27-2.52-6.42-.38-1.08-.77-2.15-1.11-3.23l-.51-1.63-.5-1.69c-1.31-4.52-2.64-9-4-13.58a275.94,275.94,0,0,0-9.35-27.15,83.71,83.71,0,0,0-6.92-13.2l-1.06-1.6c-.37-.52-.77-1-1.16-1.55l-1.12-1.48c-.27-.39-.56-.74-.82-1.16a33.48,33.48,0,0,1-2.82-5.4,91,91,0,0,1-4-12.66c-1.14-4.42-2.14-9-3.25-13.62A107.69,107.69,0,0,0,66.2,17.84,37.79,37.79,0,0,0,64.38,14a24.86,24.86,0,0,0-2.59-3.84,27,27,0,0,0-7-6.09A28.77,28.77,0,0,0,37.16.14a28.17,28.17,0,0,0-8.94,2.38,25.86,25.86,0,0,0-4.14,2.37c-.66.46-1.29,1-1.92,1.49a19.5,19.5,0,0,0-1.93,1.93,39.65,39.65,0,0,0-4.74,7.17c-1.25,2.34-2.3,4.65-3.28,7a141.61,141.61,0,0,0-4.94,14,179,179,0,0,0-6,28.7A135.76,135.76,0,0,0,.51,94.89a135.54,135.54,0,0,0,6.43,29,192.35,192.35,0,0,0,11.26,27,167.52,167.52,0,0,0,15.52,25A92.85,92.85,0,0,0,43.8,187.23c.91.89,2,1.77,2.9,2.59l2.74,2.28c1.85,1.52,3.68,3,5.55,4.51q5.58,4.49,11.31,8.8c1.39,1.06,2.82,2.09,4.26,3.11a16.52,16.52,0,0,0-.72,2,16.15,16.15,0,0,0-.59,4.76c0,.41.05.81.08,1.21l.06.57.12,1,.47,4.11.87,7.7.34-.39a.92.92,0,0,0-.07.14,1.86,1.86,0,0,0-.16.53c0,.11,0,.23,0,.35v.09s0-.11,0-.2l-.06-.52-.76.87L53.8,249.54l-2.72,3.12-1.36,1.56-.87,1a16.94,16.94,0,0,0-3.11,5.81,17.07,17.07,0,0,0-.51,2.3,17.44,17.44,0,0,0-.16,2.33v3.76c0,.4,0,.8.07,1.2A16.56,16.56,0,0,0,48.42,279a18.64,18.64,0,0,0,1.33,1.57l.71.71.64.58,1.56,1.36,6.23,5.44,3.12,2.7,1,.84,0-.75a1.87,1.87,0,0,0,.18.9,0,0,0,0,1,0,0s0,0,0,0l-.2-.17-.15,3-.35,8.34c-.41,11.14-.68,22.27-.48,33.58,0,2.82.14,5.67.29,8.54.06,1.43.18,2.9.27,4.35l.23,2.36.28,2.24c.83,5.81,1.87,11.27,3,16.77,4.47,21.85,9.56,43.32,14.71,64.83,2.56,10.75,5.27,21.46,8,32.17l2,8,0,.12h0v0s0,0,0,.06.14,0-1.14,1.62a56.89,56.89,0,0,0-8.89,16.42,37.07,37.07,0,0,0-1.85,9.81,30.3,30.3,0,0,0,.21,5.2c.12.87.26,1.73.46,2.59.09.45.19.83.3,1.21l.3,1.13a40.65,40.65,0,0,0,9.17,16.9,30.55,30.55,0,0,0,3.74,3.43c.34.26.69.52,1,.77l.58.4a3.64,3.64,0,0,1,.57.52,2.38,2.38,0,0,1,.35.52,8.72,8.72,0,0,1,.45,1.24c.32,1.06.62,2.34.92,3.66.61,2.64,1.23,5.47,2,8.29a69.69,69.69,0,0,0,3,8.46A46.08,46.08,0,0,0,127.56,584q2.49,1,5,1.79c.65,1.22,1.14,2.74,1.86,4.31a17.09,17.09,0,0,0,3,4.61,16.2,16.2,0,0,0,4.44,3.34,24.15,24.15,0,0,0,4.94,1.92,40.71,40.71,0,0,0,5,1.07,78.12,78.12,0,0,0,10,.78v.07a77.65,77.65,0,0,0,10.16-.8A33.55,33.55,0,0,0,182,598a17.27,17.27,0,0,0,4.52-3.3,18.25,18.25,0,0,0,3.18-4.53c.81-1.57,1.4-3.11,2.12-4.35.07-.13.14-.25.22-.37,1.29-.43,2.58-.9,3.85-1.42a46.08,46.08,0,0,0,25.55-25.19,67,67,0,0,0,3-8.46c.8-2.82,1.43-5.65,2-8.3.3-1.31.6-2.59.92-3.66a9,9,0,0,1,.45-1.23,2.37,2.37,0,0,1,.36-.53,4.05,4.05,0,0,1,.56-.51l.58-.4c.36-.25.71-.51,1.05-.77a32.35,32.35,0,0,0,3.75-3.43,40.74,40.74,0,0,0,9.16-16.9l.31-1.14c.1-.37.2-.75.29-1.2.2-.86.34-1.73.46-2.59a30.3,30.3,0,0,0,.21-5.2,37,37,0,0,0-1.85-9.81,57.08,57.08,0,0,0-8.89-16.43c-1.28-1.62-1.06-1.4-1.14-1.61s0-.07,0-.06a0,0,0,0,1,0,0h0l0-.11,2-8c2.7-10.72,5.41-21.43,8-32.18,5.15-21.5,10.24-43,14.71-64.82,1.09-5.5,2.12-11,3-16.78l.28-2.23.23-2.36c.09-1.45.22-2.92.28-4.35q.21-4.3.28-8.55c.2-11.3-.07-22.43-.48-33.57l-.35-8.34-.14-3.06,1-.82,3.12-2.7,6.24-5.45,1.55-1.36.64-.58c.24-.22.48-.46.71-.7a17.33,17.33,0,0,0,1.33-1.58,16.31,16.31,0,0,0,3.27-8.34c0-.4.06-.8.07-1.2v-3.76a15.83,15.83,0,0,0-.16-2.33,17.08,17.08,0,0,0-.51-2.3,16.79,16.79,0,0,0-1.87-4.09,15.72,15.72,0,0,0-1.24-1.72l-.87-1-1.36-1.55-2.72-3.12-5.43-6.24-10.86-12.48-.76-.87.88-7.7.46-4.11.12-1,.06-.57c0-.4.06-.81.08-1.21a16.44,16.44,0,0,0-.58-4.76,16.14,16.14,0,0,0-1-2.58q1.79-1.26,3.53-2.58,5.75-4.32,11.3-8.8c1.87-1.48,3.71-3,5.55-4.51l2.75-2.28c.93-.82,2-1.7,2.9-2.59A92.1,92.1,0,0,0,288.77,176a166.11,166.11,0,0,0,15.52-25,192,192,0,0,0,11.26-27A135.45,135.45,0,0,0,322,95,135.74,135.74,0,0,0,321.25,65.23ZM260.43,269.11v.13s0,0,0,0Zm-75.82-84.56h0ZM63.13,186.78c-1.77-1.5-3.52-3-5.27-4.57l-2.61-2.31c-.81-.75-1.56-1.39-2.31-2.17a86.63,86.63,0,0,1-8.48-9.93,153.76,153.76,0,0,1-13.92-23.1,184.56,184.56,0,0,1-10.3-25.14,128,128,0,0,1-5.71-26,121.39,121.39,0,0,1,.64-26.62,177.91,177.91,0,0,1,5.42-26.54,128.84,128.84,0,0,1,4.32-12.65c.83-2,1.72-4,2.67-5.84a26.4,26.4,0,0,1,2.94-4.64,6.38,6.38,0,0,1,.54-.57c.29-.24.56-.47.87-.69a13.08,13.08,0,0,1,2-1.15,14.56,14.56,0,0,1,4.64-1.27,16.06,16.06,0,0,1,9.53,1.89,13.76,13.76,0,0,1,3.68,3,16.57,16.57,0,0,1,1.41,2,23.73,23.73,0,0,1,1.29,2.48,98.35,98.35,0,0,1,4.32,12.49c2.71,8.89,5,18.28,9.64,27.52a43.33,43.33,0,0,0,4.22,6.81c.4.56.89,1.09,1.34,1.63l1.09,1.27c.35.4.71.79,1,1.21l1,1.28a74.79,74.79,0,0,1,7,11.35c2.06,4,3.88,8.28,5.58,12.6s3.33,8.68,4.83,13.12,3,8.89,4.46,13.36L100,129c.38,1.15.81,2.28,1.23,3.42.87,2.25,1.77,4.49,2.75,6.68,3.86,8.78,8.27,17.21,12.89,25.51,2.29,4.17,4.68,8.26,7.07,12.37l1.08,1.83c-10.14,4-20.1,8.39-29.95,13-5,2.33-9.94,4.77-14.91,7.16-.21.09-.86.42-1.37.7h0l-5-4Q68.43,191.34,63.13,186.78ZM84.06,321a9.74,9.74,0,0,1-4.74-2.31,6,6,0,0,1-2.11-5.09L79,297.11l.09,0c.43.16.85.3,1.27.43a24.71,24.71,0,0,0,16.9-.56c4.34-1.72,5.69-5.9,3.07-9A79,79,0,0,0,89,277.19c-6.91-5.47-13.65-7.32-19.39-6.23,1.13-5.11,5.36-9.73,12.08-11.94,4.11-1.36,8.4-1.48,12.25,1,12.59,8,29.86,24,18.74,47.21C105.42,322.35,92.3,322.62,84.06,321Zm13.31,156-.16.34,0-.14Zm88.75,111.3a14.28,14.28,0,0,1-2.58,3.42A13.37,13.37,0,0,1,180,594a29.36,29.36,0,0,1-8.78,2.23,73.07,73.07,0,0,1-9.5.37v-.07a72.23,72.23,0,0,1-9.33-.35,36.6,36.6,0,0,1-4.47-.77,19.32,19.32,0,0,1-4.11-1.4,11.72,11.72,0,0,1-3.36-2.3,12.78,12.78,0,0,1-2.37-3.41c-.21-.4-.4-.82-.59-1.26,2.36.55,4.73,1,7.1,1.29a109.52,109.52,0,0,0,17.12.84v.07a109.53,109.53,0,0,0,17.12-.84,78.61,78.61,0,0,0,8-1.49C186.59,587.38,186.36,587.82,186.12,588.24Zm48-99.17c2.25,4,3.91,8.53,3.79,13.12,0,.13,0,.25,0,.38a20,20,0,0,1-.55,3.48c-.25,1.18-.57,2.33-.89,3.48-.68,2.3-1.46,4.57-2.36,6.79A76.56,76.56,0,0,1,227.52,529l-8.78,8.32-.16.15v.23A45.66,45.66,0,0,1,217.24,548a50.41,50.41,0,0,1-3.42,9.78,43.88,43.88,0,0,1-12.83,16,51.23,51.23,0,0,1-18.62,8.86,82.28,82.28,0,0,1-20.63,2.42h0V585a82.3,82.3,0,0,1-20.64-2.42,51.23,51.23,0,0,1-18.62-8.86,43.67,43.67,0,0,1-12.82-16,49.56,49.56,0,0,1-3.43-9.78,46.24,46.24,0,0,1-1.34-10.24v-.23l-.15-.15L95.94,529a77.72,77.72,0,0,1-6.58-12.72c-.9-2.23-1.67-4.5-2.35-6.79-.32-1.16-.65-2.31-.89-3.48a19.35,19.35,0,0,1-.56-3.49c0-.11,0-.22,0-.33-.13-4.61,1.54-9.13,3.79-13.17a52.13,52.13,0,0,1,8-10.64c.21-.23.44-.46.67-.69h0l.05,0,.1-.31c.52-1.57,1-3.14,1.36-4.71l.59-2.36.51-2.36c.4-1.84.75-3.67,1.06-5.51.24-1.32.45-2.65.65-4l0-.29-.22-1c-.18-.85-.38-2-.52-3s-.29-2.09-.39-3.14c-.23-2.1-.34-4.21-.39-6.3a49.71,49.71,0,0,1,1.27-12.3,39.29,39.29,0,0,1,4.43-11,34.16,34.16,0,0,1,7.65-8.78c6-5,13.79-8.15,21.93-10.09a130.68,130.68,0,0,1,25.54-2.94h0v.07a131.44,131.44,0,0,1,25.53,2.93c8.14,2,15.91,5.05,21.93,10.1a33.93,33.93,0,0,1,7.65,8.77,39.47,39.47,0,0,1,4.43,11,49.16,49.16,0,0,1,1.27,12.29c-.05,2.1-.16,4.21-.38,6.31-.11,1.05-.24,2.1-.4,3.14s-.34,2.14-.52,3l-.22,1,0,.29c.2,1.32.41,2.65.65,4,.31,1.83.66,3.67,1.06,5.5l.52,2.37.58,2.36c.4,1.57.84,3.14,1.36,4.71l.1.31.06,0c.23.23.46.46.67.69A52.13,52.13,0,0,1,234.12,489.07Zm19.74-218c-5.74-1.08-12.49.76-19.4,6.24a79.38,79.38,0,0,0-11.3,10.8c-2.63,3.12-1.28,7.3,3.07,9a24.71,24.71,0,0,0,16.9.56c.42-.13.84-.27,1.26-.43l.09,0,1.77,16.47a6,6,0,0,1-2.11,5.09,9.74,9.74,0,0,1-4.74,2.31c-8.24,1.64-21.36,1.37-28.61-13.79C199.66,284,216.93,268,229.52,260.05c3.85-2.44,8.15-2.32,12.26-1C248.49,261.29,252.72,265.91,253.86,271ZM308,93.59a127.33,127.33,0,0,1-5.71,26A185,185,0,0,1,292,144.77,153.82,153.82,0,0,1,278,167.87a87.43,87.43,0,0,1-8.47,9.93c-.76.77-1.5,1.42-2.32,2.17l-2.61,2.31c-1.75,1.53-3.5,3.07-5.27,4.57q-5.3,4.54-10.71,8.89l-4.6,3.65-.78-.4c-5-2.38-9.92-4.82-14.92-7.15-10-4.69-20.09-9.12-30.38-13.18l-.35-.14.9-1.52c2.38-4.11,4.78-8.21,7.06-12.37,4.62-8.3,9-16.73,12.9-25.51,1-2.19,1.87-4.43,2.75-6.68.41-1.14.85-2.27,1.23-3.42l1.13-3.41c1.47-4.47,3-8.93,4.47-13.36s3.13-8.81,4.82-13.13,3.52-8.55,5.59-12.59a74.74,74.74,0,0,1,6.94-11.35l1-1.28c.33-.42.69-.81,1-1.21l1.09-1.27c.46-.54,1-1.07,1.35-1.63A43.71,43.71,0,0,0,254.09,63c4.6-9.24,6.93-18.63,9.64-27.53A100.33,100.33,0,0,1,268.05,23a23.73,23.73,0,0,1,1.29-2.48,16.88,16.88,0,0,1,1.41-2,14,14,0,0,1,3.68-3A16.15,16.15,0,0,1,284,13.61a14.51,14.51,0,0,1,4.63,1.28,13.08,13.08,0,0,1,2,1.15c.31.21.59.45.87.68s.31.3.55.58a27,27,0,0,1,2.93,4.64c1,1.83,1.84,3.81,2.67,5.84a128.84,128.84,0,0,1,4.32,12.65A179.22,179.22,0,0,1,307.33,67,122,122,0,0,1,308,93.59Z"/><path class="cls-1" d="M127.57,530.35c-.44-.18-28.9-12.43-28.9-26.46s7.58-20.49,15.88-20.49,2.36,18.68,2.36,18.68C117.85,515.28,127.28,529.9,127.57,530.35Z"/><path class="cls-1" d="M224.72,503.89c0,14-28.46,26.28-28.9,26.46.29-.45,9.71-15.07,10.65-28.27,0,0-5.92-18.68,2.37-18.68S224.72,489.74,224.72,503.89Z"/></g></g></svg>